<svg width="163" height="100" viewBox="0 0 163 100" fill="none" xmlns="http://www.w3.org/2000/svg">
<path d="M50.6336 0.00465485C50.9316 0.00555225 51.2297 0.00580013 51.5277 0.00599221C54.4888 0.0105286 57.3536 0.152083 60.2604 0.751459C60.5794 0.812294 60.8985 0.87287 61.2177 0.93317C62.3526 1.15439 63.4648 1.40323 64.5701 1.74438C64.9364 1.85624 65.3063 1.95128 65.6768 2.04834C66.6755 2.33181 67.6448 2.68805 68.6181 3.04855C68.7715 3.10537 68.925 3.1622 69.0832 3.22075C70.6936 3.82356 72.2699 4.48802 73.8225 5.22696C73.9093 5.26807 73.9962 5.30918 74.0856 5.35153C75.2374 5.89994 76.3059 6.49346 77.358 7.21857C77.9513 7.62255 78.5523 8.01457 79.1541 8.40559C79.2821 8.49075 79.4101 8.57591 79.542 8.66366C80.4761 9.27473 80.4761 9.27473 81.5529 9.43123C81.8637 9.29868 81.8637 9.29868 82.1293 9.05827C82.7721 8.56768 83.437 8.16073 84.1382 7.76139C85.0964 7.21706 85.0964 7.21706 86.0412 6.64993C88.7965 4.95394 91.8114 3.75306 94.8438 2.65016C95.0025 2.5922 95.0025 2.5922 95.1644 2.53308C96.2096 2.15557 97.2494 1.86854 98.3403 1.65684C98.8104 1.55814 99.2644 1.4261 99.7262 1.29394C103.308 0.392295 106.873 -0.0224378 110.56 0.00262734C111.018 0.0057149 111.475 0.00387638 111.933 0.000760596C115.202 -0.0180449 118.399 0.311651 121.595 1.01423C121.757 1.04874 121.918 1.08326 122.085 1.11882C124.078 1.55257 126.008 2.11802 127.935 2.78578C128.115 2.84608 128.295 2.9063 128.474 2.96643C131.332 3.93497 134.029 5.22667 136.675 6.66794C136.841 6.75812 136.841 6.75812 137.01 6.85012C137.765 7.26626 138.481 7.72414 139.192 8.21063C139.361 8.32375 139.531 8.43677 139.7 8.54969C141.528 9.78251 143.313 11.0968 144.922 12.6083C145.149 12.8318 145.149 12.8318 145.431 12.9574C145.431 13.0469 145.431 13.1364 145.431 13.2286C145.506 13.2595 145.581 13.2905 145.658 13.3223C146.064 13.5513 146.346 13.84 146.675 14.1706C146.741 14.2368 146.807 14.3031 146.876 14.3714C147.016 14.5118 147.155 14.6524 147.295 14.7934C147.505 15.0058 147.715 15.2171 147.927 15.4282C149.242 16.7483 150.425 18.1544 151.591 19.607C151.723 19.7721 151.856 19.9369 151.989 20.1014C155.098 23.9529 157.578 28.5192 159.264 33.165C159.344 33.3821 159.344 33.3821 159.427 33.6036C159.572 34.0021 159.714 34.4016 159.852 34.8028C159.913 34.9783 159.974 35.1537 160.036 35.3288C160.763 37.4044 161.229 39.5438 161.65 41.6989C161.702 41.9665 161.758 42.2336 161.813 42.5006C162.397 45.3908 162.445 48.2733 162.443 51.2111C162.443 51.3061 162.443 51.4012 162.443 51.4991C162.443 53.6299 162.413 55.7359 162.112 57.8481C162.084 58.0875 162.057 58.3269 162.03 58.5664C161.379 63.7323 159.724 68.7385 157.5 73.4286C157.356 73.7352 157.216 74.0432 157.076 74.3515C156.508 75.5945 155.902 76.7639 155.127 77.8942C154.878 78.2595 154.632 78.6275 154.387 78.9955C153.355 80.5352 152.313 82.0547 151.127 83.4805C151.063 83.5566 151 83.6327 150.935 83.7111C150.568 84.1521 150.198 84.5912 149.823 85.0257C149.693 85.1762 149.564 85.3274 149.436 85.4792C148.758 86.2719 148.028 87.0117 147.29 87.7489C147.076 87.9639 146.862 88.1799 146.649 88.396C144.679 90.3764 144.679 90.3764 143.803 90.6684C143.803 90.7579 143.803 90.8475 143.803 90.9397C143.579 91.0292 143.356 91.1187 143.125 91.2109C143.125 91.3004 143.125 91.3899 143.125 91.4822C142.95 91.6473 142.95 91.6473 142.703 91.8313C142.613 91.899 142.522 91.9667 142.429 92.0365C142.283 92.1439 142.283 92.1439 142.133 92.2535C142.034 92.327 141.935 92.4004 141.833 92.4761C141.172 92.9624 140.498 93.4181 139.798 93.8481C139.477 94.0501 139.175 94.2666 138.87 94.4913C137.727 95.2994 136.483 95.9588 135.259 96.6358C135.145 96.6987 135.032 96.7617 134.914 96.8265C133.618 97.5383 132.315 98.174 130.939 98.7146C130.55 98.8678 130.171 99.0333 129.793 99.2105C127.979 100.059 127.979 100.059 126.986 99.8907C126.608 99.5991 126.478 99.2908 126.324 98.846C126.278 98.713 126.232 98.5801 126.185 98.4431C125.903 97.5837 125.633 96.7205 125.367 95.8559C124.979 94.5965 124.58 93.3418 124.161 92.0925C123.891 91.2832 123.636 90.469 123.381 89.655C123.342 89.5317 123.303 89.4085 123.263 89.2815C123.229 89.173 123.195 89.0645 123.16 88.9527C123.085 88.728 123.002 88.5058 122.913 88.2857C122.474 87.1852 122.043 85.7462 122.239 84.5655C122.935 83.9959 123.78 83.6746 124.596 83.311C127.397 82.0416 129.901 80.6717 132.338 78.7761C132.418 78.7142 132.498 78.6523 132.58 78.5886C132.735 78.4674 132.89 78.3457 133.045 78.2234C133.377 77.9636 133.635 77.7833 134.038 77.6488C134.038 77.5593 134.038 77.4698 134.038 77.3775C134.233 77.1854 134.233 77.1854 134.505 76.9606C136.329 75.4078 138.032 73.6716 139.297 71.6295C139.352 71.5571 139.407 71.4848 139.463 71.4102C139.553 71.4102 139.642 71.4102 139.735 71.4102C139.765 71.3216 139.795 71.2329 139.827 71.1416C140.066 70.5942 140.382 70.1091 140.701 69.6047C142.227 67.1395 143.378 64.5131 144.199 61.7313C144.29 61.4265 144.385 61.1231 144.488 60.8222C146.726 54.203 146.184 45.8738 143.803 39.4036C143.737 39.2214 143.737 39.2214 143.67 39.0356C143.085 37.4426 142.366 35.9748 141.512 34.5099C141.31 34.1592 141.12 33.8023 140.93 33.4447C139.669 31.1458 138.032 29.0763 136.208 27.1976C136.128 27.1134 136.047 27.0291 135.964 26.9423C134.834 25.7668 133.683 24.6711 132.368 23.7044C132.144 23.5387 131.922 23.3699 131.699 23.2005C129.382 21.4605 126.783 20.2151 124.138 19.0603C124.046 19.02 123.953 18.9796 123.858 18.938C122.669 18.423 121.463 18.0143 120.205 17.7041C120.094 17.6766 119.984 17.6491 119.87 17.6207C119.482 17.525 119.093 17.432 118.705 17.3396C118.58 17.3089 118.455 17.2781 118.326 17.2464C117.492 17.0528 116.72 16.9875 115.865 17.026C115.865 16.9813 115.865 16.9365 115.865 16.8904C114.536 16.7182 113.204 16.7341 111.866 16.7371C111.476 16.7378 111.086 16.7371 110.697 16.7362C108.546 16.6025 108.546 16.6025 106.507 17.026C106.374 17.0227 106.241 17.0194 106.104 17.016C105.429 17.0071 104.796 17.1683 104.142 17.3227C104.012 17.353 103.881 17.3833 103.746 17.4145C101.892 17.8283 101.892 17.8283 100.134 18.5205C99.8273 18.6703 99.5156 18.753 99.1872 18.8429C97.5899 19.3185 96.0712 20.0035 94.7082 20.959C94.4139 21.1316 94.1189 21.3022 93.8214 21.4692C93.61 21.628 93.61 21.628 93.4945 21.8718C93.4837 22.3553 93.7497 22.6866 94.0047 23.0781C94.1191 23.2612 94.2332 23.4445 94.3469 23.628C94.4365 23.7719 94.4365 23.7719 94.528 23.9187C95.0731 24.8115 95.5642 25.7368 96.0644 26.6551C96.1213 26.7587 96.1782 26.8622 96.2367 26.9688C97.0944 28.5347 97.8347 30.1292 98.5159 31.7792C98.6175 32.0231 98.7231 32.2653 98.8298 32.507C100.042 35.2618 100.734 38.1729 101.383 41.0989C101.445 41.3752 101.508 41.6513 101.573 41.9268C102.942 47.7678 102.851 55.1416 101.489 60.9674C101.464 61.0825 101.438 61.1976 101.411 61.3162C99.944 67.8736 97.5559 74.3214 93.6879 79.8632C93.4656 80.2655 93.38 80.4547 93.4876 80.9037C93.8019 81.1899 93.8019 81.1899 94.2335 81.4208C94.3122 81.4664 94.3909 81.5121 94.472 81.5592C94.7296 81.7064 94.9894 81.8483 95.2507 81.9887C95.3377 82.0355 95.4247 82.0822 95.5144 82.1304C96.65 82.7329 97.8062 83.2493 99.0068 83.7078C100.195 84.184 100.195 84.184 100.54 84.7011C100.649 85.7786 100.155 86.8648 99.8078 87.8622C99.6086 88.4368 99.4345 89.0156 99.2685 89.6004C98.9734 90.6275 98.6374 91.6384 98.295 92.6505C97.9885 93.5622 97.6935 94.4769 97.4053 95.3945C97.3688 95.5106 97.3323 95.6267 97.2947 95.7463C97.1116 96.3298 96.9292 96.9136 96.7475 97.4975C96.6798 97.7139 96.6121 97.9303 96.5444 98.1467C96.4983 98.2961 96.4983 98.2961 96.4512 98.4485C96.1584 99.3817 96.1584 99.3817 95.9288 99.7551C95.4416 99.9987 94.9357 99.9517 94.4164 99.8125C94.083 99.6975 93.7558 99.5722 93.4283 99.4414C93.3049 99.3931 93.1816 99.3447 93.0545 99.2948C90.4178 98.2436 87.9307 96.9891 85.486 95.5508C85.3232 95.4556 85.1604 95.3604 84.9975 95.2653C84.4901 94.9687 83.9834 94.6709 83.4771 94.3726C83.3959 94.3248 83.3147 94.2771 83.231 94.2279C83.0011 94.0924 82.7716 93.9562 82.542 93.82C82.3438 93.7026 82.3438 93.7026 82.1416 93.5829C81.8242 93.3809 81.8242 93.3809 81.5529 93.1096C80.9377 93.0439 80.6287 93.1213 80.1459 93.4995C79.298 94.1298 78.4087 94.6781 77.5097 95.2315C77.2091 95.4176 76.9104 95.6064 76.6118 95.7956C74.6381 97.0379 72.581 97.954 70.432 98.8481C70.3045 98.9012 70.3045 98.9012 70.1744 98.9554C69.6293 99.1818 69.0822 99.4024 68.5333 99.6194C68.4141 99.6683 68.2948 99.7171 68.172 99.7674C67.6917 99.9503 67.3787 100.032 66.8608 99.9887C66.3173 99.6377 66.2002 99.1912 65.9989 98.5938C65.9607 98.4888 65.9225 98.3838 65.8831 98.2757C65.768 97.9563 65.6583 97.6355 65.5496 97.3139C65.5155 97.2158 65.4815 97.1178 65.4464 97.0168C65.1648 96.1957 64.9376 95.3626 64.7105 94.5252C64.3463 93.2016 63.9379 91.8995 63.4952 90.6004C63.1891 89.6999 62.9055 88.7964 62.652 87.8797C62.532 87.4535 62.394 87.0589 62.2168 86.6522C62.0384 86.2284 61.9402 85.8844 61.8878 85.4301C61.8711 85.308 61.8543 85.186 61.837 85.0603C61.9139 84.517 62.1357 84.3558 62.566 84.023C62.9787 83.8283 63.4052 83.6853 63.8374 83.5398C65.3851 82.9885 66.8077 82.247 68.2459 81.4581C68.5333 81.3106 68.5333 81.3106 68.9402 81.1749C69.098 80.7125 69.0912 80.5316 68.8898 80.0772C68.7511 79.8486 68.7511 79.8486 68.6096 79.6153C68.5346 79.4897 68.5346 79.4897 68.4582 79.3615C68.2216 78.967 67.9777 78.5772 67.7339 78.187C64.611 73.1905 62.5001 67.7903 61.2097 62.0523C61.16 61.8362 61.16 61.8362 61.1093 61.6157C60.8461 60.4394 60.6641 59.2641 60.5147 58.0684C60.4918 57.8947 60.4689 57.7209 60.4453 57.5419C60.1794 55.4568 60.1002 53.3944 60.1078 51.2959C60.1081 51.1853 60.1084 51.0748 60.1087 50.9609C60.1216 46.916 60.5381 43.0392 61.5228 39.102C61.6063 38.7669 61.6867 38.4313 61.7655 38.095C62.7215 34.055 64.3657 29.8589 66.5678 26.3235C66.8138 25.9024 67.0245 25.4665 67.2364 25.0277C67.5892 24.3088 67.9781 23.661 68.4549 23.0183C68.5255 22.9205 68.5961 22.8228 68.6689 22.7221C68.7916 22.5525 68.7916 22.5525 68.9168 22.3794C69.1136 22.0583 69.1136 22.0583 68.9963 21.7537C66.8892 18.9831 60.6651 17.6882 57.4123 17.1616C57.0395 17.122 56.6689 17.0883 56.2945 17.0679C56.2159 17.0541 56.1372 17.0403 56.0561 17.026C56.0114 16.9365 55.9666 16.847 55.9205 16.7548C54.8662 16.7513 53.8119 16.749 52.7576 16.7473C52.3994 16.7467 52.0413 16.7457 51.6831 16.7446C51.1663 16.7429 50.6495 16.7421 50.1328 16.7415C49.9743 16.7408 49.8159 16.7401 49.6527 16.7394C48.5249 16.7393 47.3884 16.7402 46.2914 17.026C46.0825 17.043 45.8734 17.0568 45.6641 17.0684C43.7925 17.2304 41.9592 17.7757 40.1884 18.3822C40.035 18.4344 40.035 18.4344 39.8784 18.4877C38.3344 19.0185 36.8798 19.645 35.4417 20.4166C35.2776 20.5038 35.2776 20.5038 35.1102 20.5927C32.301 22.0903 29.6652 23.8185 27.44 26.1211C27.1688 26.3839 27.1688 26.3839 26.8975 26.3839C26.8975 26.4734 26.8975 26.5629 26.8975 26.6551C26.5754 27.0111 26.5754 27.0111 26.2194 27.3332C26.1299 27.3332 26.0404 27.3332 25.9482 27.3332C25.9025 27.4442 25.9025 27.4442 25.856 27.5573C25.6228 27.9721 25.309 28.2896 24.9819 28.6301C24.2838 29.3741 23.6858 30.1593 23.1001 30.995C23.0111 31.1132 22.9222 31.2314 22.8305 31.3532C22.1609 32.2424 21.6034 33.1721 21.0664 34.1441C20.9336 34.3796 20.7939 34.6113 20.6542 34.8428C19.9602 35.9994 19.4611 37.1762 18.9999 38.4408C18.8961 38.7248 18.7898 39.0078 18.6829 39.2907C18.3077 40.2904 17.954 41.2921 17.7415 42.3401C17.6951 42.5633 17.6434 42.7854 17.5879 43.0065C17.4945 43.3813 17.4096 43.7571 17.3297 44.135C17.2871 44.3343 17.2427 44.5333 17.1971 44.7319C16.7303 46.8209 16.6741 48.8764 16.6751 51.0077C16.6748 51.1418 16.6746 51.2759 16.6744 51.414C16.6748 53.6263 16.866 55.7279 17.3108 57.8989C17.3403 58.0439 17.3697 58.1888 17.4001 58.3381C17.6614 59.5948 17.9779 60.8254 18.3534 62.0523C18.3814 62.1473 18.4095 62.2423 18.4383 62.3402C19.1441 64.7167 20.1429 67.0719 21.506 69.1475C21.6818 69.4164 21.846 69.693 22.0035 69.9729C23.3553 72.3626 26.0862 76.1582 28.525 77.3775C28.525 77.467 28.525 77.5566 28.525 77.6488C28.5979 77.6808 28.6708 77.7128 28.7459 77.7457C29.156 77.968 29.5085 78.25 29.8727 78.5388C32.7497 80.7834 35.9495 82.6093 39.3585 83.9159C39.4628 83.9575 39.5671 83.9992 39.6745 84.0421C39.8136 84.0956 39.8136 84.0956 39.9555 84.1503C40.259 84.3379 40.3406 84.5034 40.4597 84.8367C40.3985 85.978 40.0994 87.1151 39.6687 88.1706C39.3375 88.9832 39.0576 89.8103 38.7813 90.643C38.7277 90.8042 38.674 90.9654 38.6187 91.1315C38.3062 92.0792 38.0134 93.0294 37.7472 93.9912C37.4312 95.132 37.0761 96.2577 36.7046 97.3817C36.653 97.5396 36.6013 97.6976 36.5481 97.8603C36.4985 98.0087 36.449 98.157 36.3979 98.3099C36.3541 98.4416 36.3103 98.5733 36.2651 98.709C35.8862 99.6684 35.8862 99.6684 35.4417 99.8907C34.5897 99.9707 33.9791 99.7338 33.2124 99.4075C33.0934 99.3582 32.9744 99.3089 32.8518 99.2581C32.4937 99.1091 32.1368 98.9576 31.7799 98.8057C31.5839 98.7239 31.3879 98.6422 31.1919 98.5604C29.9459 98.0344 28.7599 97.4229 27.5756 96.7714C27.4557 96.7079 27.3358 96.6445 27.2122 96.5791C24.5478 95.1639 22.0254 93.5206 19.6574 91.6535C19.4327 91.4777 19.2059 91.3049 18.9785 91.1325C17.4947 89.9995 16.1434 88.7361 14.8272 87.4135C14.7118 87.3013 14.5965 87.189 14.4776 87.0734C13.7395 86.3505 13.0641 85.6127 12.4199 84.8028C12.103 84.4154 11.7694 84.0501 11.4282 83.6839C10.7798 82.9766 10.2162 82.2368 9.67361 81.4462C9.57239 81.299 9.47116 81.1518 9.36687 81.0001C8.69432 80.0109 8.05245 79.0023 7.4189 77.9878C7.3492 77.877 7.2795 77.7662 7.20769 77.652C6.20346 76.031 5.3412 74.3326 4.5539 72.5969C4.5141 72.5093 4.4743 72.4218 4.43329 72.3316C3.7671 70.8562 3.19565 69.3562 2.67216 67.8247C2.62214 67.6792 2.62214 67.6792 2.57112 67.5308C1.89717 65.557 1.41558 63.5523 0.993842 61.5098C0.96163 61.3631 0.929419 61.2163 0.896231 61.065C0.599423 59.6701 0.424956 58.2755 0.290306 56.8563C0.272834 56.6729 0.272834 56.6729 0.25501 56.4857C-0.291404 50.5947 0.0178213 44.755 1.40071 38.9967C1.44109 38.8251 1.48147 38.6535 1.52308 38.4768C1.82576 37.2116 2.19523 35.9792 2.6213 34.75C2.65305 34.6578 2.6848 34.5656 2.71751 34.4706C3.66967 31.7196 4.84532 29.0527 6.28308 26.5195C6.33651 26.4249 6.38994 26.3304 6.44499 26.2329C7.23575 24.8413 8.08474 23.4956 8.9955 22.1796C9.05073 22.0998 9.10595 22.0199 9.16285 21.9377C10.3124 20.2843 11.5267 18.6999 12.8994 17.2252C13.1678 16.9261 13.4063 16.6231 13.6405 16.2971C13.9811 15.8254 14.3748 15.495 14.8272 15.1273C14.9602 14.9773 15.09 14.8246 15.2171 14.6696C15.6713 14.1258 16.1859 13.6851 16.7259 13.2286C16.8693 13.1041 17.0125 12.9794 17.1556 12.8546C24.5804 6.39564 33.4662 2.12519 43.2039 0.541603C43.4375 0.503365 43.671 0.464344 43.9043 0.424126C46.1419 0.0420916 48.3703 -0.00251335 50.6336 0.00465485ZM80.815 34.6758C80.328 35.2568 80.0631 36.0064 79.7475 36.6911C79.6881 36.8193 79.6881 36.8193 79.6275 36.95C79.0132 38.2806 78.4853 39.613 78.101 41.0291C78.0316 41.2844 77.9573 41.5384 77.8827 41.7923C77.1395 44.4021 76.6954 46.9978 76.6706 49.7108C76.668 49.8501 76.6654 49.9894 76.6628 50.133C76.5867 54.2592 77.0386 58.1979 78.3267 62.1321C78.4033 62.3663 78.4777 62.6012 78.5507 62.8366C78.8831 63.8838 79.3108 64.8619 79.7899 65.8497C79.8605 65.9995 79.9311 66.1494 80.0039 66.3037C80.0731 66.4476 80.1424 66.5915 80.2137 66.7397C80.3065 66.933 80.3065 66.933 80.4012 67.1302C80.6106 67.4892 80.8402 67.7407 81.1461 68.0197C81.7156 67.8298 81.8421 67.4409 82.1039 66.9347C82.1565 66.8336 82.2091 66.7325 82.2633 66.6283C85.9327 59.3795 86.5682 50.9595 84.9435 43.0653C84.9146 42.9139 84.8858 42.7625 84.8561 42.6065C84.6175 41.5015 84.1679 40.4696 83.7383 39.4279C83.5521 38.9763 83.3734 38.5232 83.2032 38.0654C82.5721 36.0311 82.5721 36.0311 81.2791 34.5217C81.004 34.4933 81.004 34.4933 80.815 34.6758Z" fill="white"/>
</svg>
